<?xml version="1.0" encoding="UTF-8" standalone="no"?>
<!DOCTYPE svg PUBLIC "-//W3C//DTD SVG 1.1//EN" "http://www.w3.org/Graphics/SVG/1.1/DTD/svg11.dtd">
<svg width="100%" height="100%" viewBox="0 0 800 800" version="1.1" xmlns="http://www.w3.org/2000/svg" xmlns:xlink="http://www.w3.org/1999/xlink" xml:space="preserve" xmlns:serif="http://www.serif.com/" style="fill-rule:evenodd;clip-rule:evenodd;stroke-linecap:round;">
    <g transform="matrix(1,0,0,1,0,-1.892395)">
        <g id="logo" transform="matrix(1,0,0,1,0,1.892395)">
            <rect x="0" y="0" width="800" height="800" style="fill:none;"/>
            <g transform="matrix(22.196881,0,0,22.196881,133.636876,124.429055)">
                <path d="M17,7.83L18.697,9.356C20.239,10.745 21.01,11.439 21.01,12.33C21.01,13.22 20.239,13.915 18.697,15.303L17,16.83" style="fill:none;fill-rule:nonzero;stroke:rgb(80,110,247);stroke-width:1.5px;"/>
            </g>
            <g transform="matrix(22.196881,0,0,22.196881,133.636876,124.429055)">
                <path d="M13.987,5L12.993,8.707M11.843,13L10.013,19.83" style="fill:none;fill-rule:nonzero;stroke:rgb(80,110,247);stroke-width:1.5px;"/>
            </g>
            <g transform="matrix(22.196881,0,0,22.196881,133.636876,124.429055)">
                <path d="M7,7.83L5.304,9.356C3.761,10.745 2.99,11.439 2.99,12.33C2.99,13.22 3.761,13.915 5.304,15.303L7,16.83" style="fill:none;fill-rule:nonzero;stroke:rgb(80,110,247);stroke-width:1.5px;"/>
            </g>
        </g>
    </g>
</svg>
